<svg width="209" height="204" viewBox="0 0 209 204" fill="none" xmlns="http://www.w3.org/2000/svg">
<circle cx="94.5" cy="109.5" r="90" fill="white" stroke="black" stroke-width="9"/>
<circle cx="114.5" cy="94.5" r="90" fill="#0052FF" stroke="black" stroke-width="9"/>
<path d="M154.811 56.516C154.467 55.5027 154.056 55.236 153.415 54.9827C152.012 54.4627 149.636 55.2494 149.636 55.2494C149.636 55.2494 65.523 85.4894 60.7177 88.836C59.683 89.556 59.3364 89.9827 59.1644 90.476C58.3337 92.8493 60.9217 93.9027 60.9217 93.9027L82.6017 100.969C82.6017 100.969 83.4097 101.089 83.6977 100.903C88.6297 97.7827 133.319 69.5693 135.896 68.6227C136.303 68.5027 136.604 68.636 136.524 68.916C135.492 72.5427 96.6777 107.036 96.6777 107.036C96.6777 107.036 96.5297 107.223 96.4364 107.436L96.3857 107.409L94.363 128.916C94.363 128.916 93.515 135.503 100.103 128.916C104.751 124.263 109.248 120.369 111.499 118.489C118.954 123.636 126.976 129.329 130.439 132.303C132.178 133.796 133.632 134.036 134.83 133.996C138.116 133.876 139.034 130.263 139.034 130.263C139.034 130.263 154.362 68.5694 154.874 60.3027C154.924 59.4894 154.994 58.9827 154.999 58.4227C155.008 57.6493 154.936 56.876 154.811 56.516Z" fill="white"/>
</svg>
