<svg width="209" height="204" viewBox="0 0 209 204" fill="none" xmlns="http://www.w3.org/2000/svg">
<circle cx="94.5" cy="109.5" r="90" fill="white" stroke="black" stroke-width="9"/>
<circle cx="114.5" cy="94.5" r="90" fill="#0052FF" stroke="black" stroke-width="9"/>
<path d="M96.7024 137C135.952 137 157.417 104.686 157.417 76.6656C157.417 75.7475 157.393 74.8329 157.357 73.9243C161.524 70.9311 165.143 67.1959 168 62.9451C164.179 64.6322 160.06 65.7704 155.75 66.2827C160.155 63.6586 163.536 59.5035 165.131 54.5522C161 56.9823 156.441 58.7487 151.583 59.6999C147.679 55.578 142.143 53 136 53C124.214 53 114.667 62.4967 114.667 74.2035C114.667 75.8681 114.845 77.4866 115.214 79.0388C97.4762 78.1527 81.7619 69.7148 71.2381 56.8841C69.4047 60.0158 68.3452 63.6586 68.3452 67.5415C68.3452 74.8992 72.1071 81.3932 77.8452 85.1933C74.3452 85.0857 71.0476 84.1297 68.1785 82.5396C68.1666 82.6283 68.1667 82.717 68.1667 82.8105C68.1667 93.081 75.5238 101.655 85.2857 103.6C83.5 104.084 81.6071 104.345 79.6666 104.345C78.2857 104.345 76.9523 104.21 75.6547 103.963C78.369 112.388 86.25 118.519 95.5833 118.692C88.2857 124.379 79.0834 127.768 69.0834 127.768C67.3691 127.768 65.6667 127.671 64 127.475C73.4405 133.489 84.6548 137 96.7024 137Z" fill="white"/>
</svg>
